<svg width="300" height="300" viewBox="0 0 300 300" fill="none" xmlns="http://www.w3.org/2000/svg">
<rect width="300" height="300" fill="#14304A"/>
<path d="M214.553 100.476C211.753 92.5304 207.808 85.663 202.703 79.8667C197.598 73.9077 191.592 69.2775 184.677 65.9624C177.769 62.6541 170.278 61 162.211 61C154.144 61 147.398 62.4914 140.979 65.4675C134.728 68.4436 129.379 72.7485 124.932 78.3753V64.2269H80V240C104.819 240 124.932 219.886 124.932 195.067V174.953C129.217 180.58 134.565 184.803 140.979 187.617C147.398 190.26 154.476 191.589 162.211 191.589C169.946 191.589 177.769 189.935 184.677 186.62C191.592 183.149 197.598 178.512 202.703 172.722C207.808 166.926 211.753 160.059 214.553 152.113C217.515 144.168 219 135.565 219 126.291C219 117.017 217.515 108.421 214.553 100.476ZM171.844 135.979C170.522 138.955 168.712 141.606 166.407 143.917C164.109 146.073 161.472 147.809 158.51 149.131C155.547 150.459 152.34 151.124 148.883 151.124C145.426 151.124 142.131 150.459 139.006 149.131C136.043 147.809 133.413 146.073 131.108 143.917C128.803 141.606 126.993 138.955 125.678 135.979C124.356 132.996 123.699 129.769 123.699 126.291C123.699 122.813 124.356 119.593 125.678 116.61C126.993 113.634 128.803 111.065 131.108 108.916C133.413 106.597 136.043 104.774 139.006 103.452C142.131 102.13 145.426 101.465 148.883 101.465C152.34 101.465 155.547 102.13 158.51 103.452C161.472 104.774 164.109 106.597 166.407 108.916C168.712 111.065 170.522 113.634 171.844 116.61C173.159 119.593 173.817 122.82 173.817 126.291C173.817 129.762 173.159 132.996 171.844 135.979Z" fill="#2FAECA"/>
</svg>
